<?xml version="1.0" encoding="UTF-8" standalone="no"?>
<!DOCTYPE svg PUBLIC "-//W3C//DTD SVG 1.1//EN" "http://www.w3.org/Graphics/SVG/1.1/DTD/svg11.dtd">
<svg width="100%" height="100%" viewBox="0 0 24 24" version="1.1" xmlns="http://www.w3.org/2000/svg" xmlns:xlink="http://www.w3.org/1999/xlink" xml:space="preserve" xmlns:serif="http://www.serif.com/" style="fill-rule:evenodd;clip-rule:evenodd;stroke-linejoin:round;stroke-miterlimit:2;">
    <g transform="matrix(0.970068,0,0,0.841251,0.0897952,13.1742)">
        <rect x="3" y="4.727" width="18.555" height="2.021" style="fill:rgb(28,28,28);"/>
    </g>
    <g transform="matrix(0.970068,0,0,0.841251,0.0897952,7.17324)">
        <rect x="3" y="4.727" width="18.555" height="2.021" style="fill:rgb(28,28,28);"/>
    </g>
    <g id="_-Rectangle-" serif:id="(Rectangle)" transform="matrix(0.970068,0,0,0.841251,0.0897952,1.17224)">
        <rect x="3" y="4.727" width="18.555" height="2.021" style="fill:rgb(28,28,28);"/>
    </g>
    <g transform="matrix(0.943122,0,0,0.593825,0.670634,14.8439)">
        <rect x="3" y="4.727" width="18.555" height="2.021" style="fill:white;"/>
        <path d="M21.555,4.727L3,4.727L3,6.748L21.555,6.748L21.555,4.727ZM21.502,4.811L21.502,6.664C21.502,6.664 3.053,6.664 3.053,6.664C3.053,6.664 3.053,4.811 3.053,4.811L21.502,4.811Z" style="fill:rgb(28,28,28);"/>
    </g>
    <g transform="matrix(0.943122,0,0,0.593825,0.670634,8.84288)">
        <rect x="3" y="4.727" width="18.555" height="2.021" style="fill:white;"/>
        <path d="M21.555,4.727L3,4.727L3,6.748L21.555,6.748L21.555,4.727ZM21.502,4.811L21.502,6.664C21.502,6.664 3.053,6.664 3.053,6.664C3.053,6.664 3.053,4.811 3.053,4.811L21.502,4.811Z" style="fill:rgb(28,28,28);"/>
    </g>
    <g id="_-Rectangle-1" serif:id="(Rectangle)" transform="matrix(0.943122,0,0,0.593825,0.670634,2.84187)">
        <rect x="3" y="4.727" width="18.555" height="2.021" style="fill:white;"/>
        <path d="M21.555,4.727L3,4.727L3,6.748L21.555,6.748L21.555,4.727ZM21.502,4.811L21.502,6.664C21.502,6.664 3.053,6.664 3.053,6.664C3.053,6.664 3.053,4.811 3.053,4.811L21.502,4.811Z" style="fill:rgb(28,28,28);"/>
    </g>
</svg>
