<?xml version="1.0" encoding="UTF-8" standalone="no"?><!DOCTYPE svg PUBLIC "-//W3C//DTD SVG 1.1//EN" "http://www.w3.org/Graphics/SVG/1.1/DTD/svg11.dtd"><svg width="100%" height="100%" viewBox="0 0 3750 3750" version="1.1" xmlns="http://www.w3.org/2000/svg" xmlns:xlink="http://www.w3.org/1999/xlink" xml:space="preserve" xmlns:serif="http://www.serif.com/" style="fill-rule:evenodd;clip-rule:evenodd;stroke-linejoin:round;stroke-miterlimit:2;"><g id="grid"><rect x="0" y="0" width="3750" height="3750" style="fill:#fff;"/><path d="M3225,512.5l-2750,0l0,2750l2750,0l0,-2750Zm-129.167,129.167l0,2491.67c0,0 -2491.67,0 -2491.67,0c-0,0 -0,-1964.02 -0,-2491.67l2491.67,-0Z" style="fill:#ff6d21;"/><rect x="801.442" y="836.581" width="400.877" height="400.877" style="fill:#ff6d21;"/><rect x="1378.83" y="836.581" width="400.877" height="400.877" style="fill:#202527;"/><rect x="1946.32" y="836.581" width="400.877" height="400.877" style="fill:#202527;"/><rect x="2514.34" y="836.581" width="400.877" height="400.877" style="fill:#202527;"/><rect x="801.442" y="1401.47" width="400.877" height="400.877" style="fill:#202527;"/><rect x="1378.83" y="1401.47" width="400.877" height="400.877" style="fill:#202527;"/><rect x="1946.32" y="1401.47" width="400.877" height="400.877" style="fill:#202527;"/><rect x="2514.34" y="1401.47" width="400.877" height="400.877" style="fill:#202527;"/><rect x="801.442" y="1975.74" width="400.877" height="400.877" style="fill:#202527;"/><rect x="1378.83" y="1975.74" width="400.877" height="400.877" style="fill:#202527;"/><rect x="1946.32" y="1975.74" width="400.877" height="400.877" style="fill:#ff6d21;"/><rect x="801.442" y="2542.7" width="400.877" height="400.877" style="fill:#202527;"/><rect x="1378.83" y="2542.7" width="400.877" height="400.877" style="fill:#202527;"/></g></svg>