<?xml version="1.0" encoding="UTF-8" standalone="no"?><!DOCTYPE svg PUBLIC "-//W3C//DTD SVG 1.1//EN" "http://www.w3.org/Graphics/SVG/1.1/DTD/svg11.dtd"><svg width="100%" height="100%" viewBox="0 0 3750 3750" version="1.1" xmlns="http://www.w3.org/2000/svg" xmlns:xlink="http://www.w3.org/1999/xlink" xml:space="preserve" xmlns:serif="http://www.serif.com/" style="fill-rule:evenodd;clip-rule:evenodd;stroke-linejoin:round;stroke-miterlimit:2;"><g id="meeba"><rect x="0" y="0" width="3750" height="3750" style="fill:#fff;"/><path d="M103.95,2325.45l319.023,99.001l-40.021,84.668l-279.002,-183.669Z" style="fill:#a4a4a4;"/><circle cx="715.625" cy="2555.94" r="346.875" style="fill:#cecece;"/><path d="M1470.89,2959.06l-335.99,-122.732l43.371,-83.002l292.619,205.734Z" style="fill:#5c5c5c;"/><path d="M2742.34,3728.18l-21.91,-301.914l99.563,9.335l-77.653,292.579Z" style="fill:#8c8c8c;"/><path d="M997.452,3733.24l-14.648,-513.981l99.763,6.885l-85.115,507.096Z" style="fill:#f3f3f3;"/><path d="M1654.39,2677.54l-16.57,357.321l-92.177,-16.547l108.747,-340.774Z" style="fill:#efefef;"/><path d="M3022.22,3503.48l-189.729,-235.87l87.203,-48.946l102.526,284.816Z" style="fill:#292929;"/><path d="M3074.61,3572.64l20.868,-292.736l85.084,19.05l-105.952,273.686Z" style="fill:#151515;"/><path d="M2729.73,2344.2l47.715,235.016l-87.177,1.526l39.462,-236.542Z" style="fill:#171717;"/><path d="M3458.83,2945.24l-151.222,2.153l23.943,-83.839l127.279,81.686Z" style="fill:#454545;"/><path d="M1513.55,2081.36l-101.001,112.568l-45.358,-74.464l146.359,-38.104Z" style="fill:#eee;"/><path d="M1251.86,2477.93l-118.074,69.721l-18.163,-85.277l136.237,15.556Z" style="fill:#707070;"/><path d="M3361.21,2580.74l-43.131,110.988l-64.064,-59.144l107.195,-51.844Z" style="fill:#171717;"/><path d="M2800.88,2133.58l136.619,237.112l-81.517,30.938l-55.102,-268.05Z" style="fill:#202020;"/><path d="M2611.11,2871.57l-332.994,246.948l-49.445,-86.921l382.439,-160.027Z"/><path d="M1922.89,2511.09l104.161,438.964l-99.257,12.163l-4.904,-451.127Z"/><path d="M2794.78,1159.08l-587.942,422.691l-52.628,-85.031l640.57,-337.66Z"/><path d="M2248.05,1939.38l-93.845,-5.849l58.342,-81.218l35.503,87.067Z"/><path d="M1882.39,1244.3l40.944,182.422l-99.876,-4.992l58.932,-177.43Z"/><path d="M1930.03,1231.95l36.165,183.43l-99.711,-7.6l63.546,-175.83Z"/><path d="M2129.2,2297.97l-170.937,-240.818l90.168,-43.24l80.769,284.058Z"/><path d="M1751.91,2437.66l11.362,-388.203l98.748,15.77l-110.11,372.433Z"/><path d="M1638.33,2522.05l-467.087,-331.509l64.776,-76.185l402.311,407.694Z"/><path d="M1511.81,1324.36l-309.058,421.581l-74.625,-66.567l383.683,-355.014Z"/><path d="M1156.05,1476.72l-46.674,203.069l-89.236,-45.133l135.91,-157.936Z"/><path d="M531.338,1606.22l189.311,87.041l-62.355,78.178l-126.956,-165.219Z"/><path d="M286.256,1588.08l398.821,162.627l-48.253,87.588l-350.568,-250.215Z"/><path d="M264.607,1695.04l387.39,112.169l-39.507,91.866l-347.883,-204.035Z"/><path d="M3331.41,1585.58l29.073,222.209l-99.55,-9.477l70.477,-212.732Z"/><path d="M3267.64,1647.73l51.338,155.235l-99.996,0.86l48.658,-156.095Z"/><path d="M3670.31,1891.88l-111.221,119.846l-48.986,-87.18l160.207,-32.666Z"/><path d="M3693.83,2314.41l-158.866,-38.667l52.229,-85.277l106.637,123.944Z"/><path d="M3452.84,2580.74l-101.503,-171.182l96.071,-27.757l5.432,198.939Z"/><path d="M3165.2,2603.11l-14.89,-198.455l98.401,17.811l-83.511,180.644Z"/><path d="M2791.28,2689.77l246.054,-378.719l77.309,63.43l-323.363,315.289Z"/><path d="M-0,1159.12l514.844,-91.239l7.954,99.684l-522.798,-8.445Z"/><path d="M387.318,354.156l293.134,539.285l-91.458,40.441l-201.676,-579.726Z"/><path d="M657.906,504.774l72.455,370.136l-99.818,6.031l27.363,-376.167Z"/><path d="M339.785,1397.43l183.013,-224.01l65.339,75.702l-248.352,148.308Z"/><path d="M1053.14,1222.33l-178.908,-29.061l42.64,-90.453l136.268,119.514Z"/><path d="M1067.41,1019.26l-160.844,83.559l-19.832,-98.014l180.676,14.455Z"/><path d="M1406.71,185.735l-131.126,-39.646l61.882,-78.554l69.244,118.2Z"/><path d="M559.032,506.575l275.611,-373.69l73.619,67.677l-349.23,306.013Z"/><path d="M601.288,157.61l213.438,-94.417l19.923,97.995l-233.361,-3.578Z"/><path d="M1650.11,2994.25l168.333,29.748l-45.444,89.077l-122.889,-118.825Z"/><path d="M1593.14,3335.85l144.426,-91.444l26.443,96.44l-170.869,-4.996Z"/><path d="M1978.28,3663.21l-27.352,-168.739l99.075,13.572l-71.723,155.167Z"/><circle cx="1056.25" cy="7.959" r="288.281" style="fill:#c42121;"/><circle cx="717.969" cy="1096.57" r="240.625" style="fill:#58a556;"/><circle cx="946.094" cy="1946.57" r="356.25" style="fill:#4725c0;"/><circle cx="1875" cy="1730.94" r="362.5" style="fill:#a73e5f;"/><circle cx="3271.88" cy="2127.82" r="331.25" style="fill:#a441a4;"/><circle cx="2021.88" cy="3237.19" r="296.875" style="fill:#d0151b;"/><circle cx="1965.62" cy="921.566" r="100" style="fill:#78a702;"/><circle cx="1450" cy="390.316" r="100" style="fill:#6b891f;"/><circle cx="2925" cy="221.566" r="100" style="fill:#6f9216;"/><circle cx="3581.25" cy="677.816" r="100" style="fill:#709514;"/><circle cx="2731.25" cy="1571.57" r="100" style="fill:#678028;"/><circle cx="2450" cy="1709.07" r="100" style="fill:#729910;"/><circle cx="2837.5" cy="1987.19" r="100" style="fill:#5a6345;"/></g></svg>